HIERARCHY
ROOT RootJoint
{
    OFFSET   0.000000   0.000000   0.000000
    CHANNELS 6 Xposition Yposition Zposition Xrotation Yrotation Zrotation
    JOINT pelvis_lowerback
    {
        OFFSET   0.000000   0.093605   0.000000
        CHANNELS 3 Xrotation Yrotation Zrotation
        JOINT lowerback_torso
        {
            OFFSET   0.000000   0.100000   0.000000
            CHANNELS 3 Xrotation Yrotation Zrotation
            JOINT torso_head
            {
                OFFSET   0.000000   0.282350   0.000000
                CHANNELS 3 Xrotation Yrotation Zrotation
                End Site
                {
                    OFFSET   0.000000   0.192650   0.000000
                }
            }
            JOINT rTorso_Clavicle
            {
                OFFSET  -0.001000   0.157500   0.000000
                CHANNELS 3 Xrotation Yrotation Zrotation
                JOINT rShoulder
                {
                    OFFSET  -0.117647   0.000000   0.000000
                    CHANNELS 3 Xrotation Yrotation Zrotation
                    JOINT rElbow
                    {
                        OFFSET  -0.245000   0.000000   0.000000
                        CHANNELS 3 Xrotation Yrotation Zrotation
                        JOINT rWrist
                        {
                            OFFSET  -0.240000   0.000000   0.000000
                            CHANNELS 3 Xrotation Yrotation Zrotation
                            End Site
                            {
                                OFFSET  -0.116353  -0.002500   0.000000
                            }
                        }
                    }
                }
            }
            JOINT lTorso_Clavicle
            {
                OFFSET   0.001000   0.157500   0.000000
                CHANNELS 3 Xrotation Yrotation Zrotation
                JOINT lShoulder
                {
                    OFFSET   0.117647   0.000000   0.000000
                    CHANNELS 3 Xrotation Yrotation Zrotation
                    JOINT lElbow
                    {
                        OFFSET   0.245000   0.000000   0.000000
                        CHANNELS 3 Xrotation Yrotation Zrotation
                        JOINT lWrist
                        {
                            OFFSET   0.240000   0.000000   0.000000
                            CHANNELS 3 Xrotation Yrotation Zrotation
                            End Site
                            {
                                OFFSET   0.116353  -0.002500   0.000000
                            }
                        }
                    }
                }
            }
        }
    }
    JOINT rHip
    {
        OFFSET  -0.100000  -0.051395   0.000000
        CHANNELS 3 Xrotation Yrotation Zrotation
        JOINT rKnee
        {
            OFFSET   0.000000  -0.410000   0.000000
            CHANNELS 3 Xrotation Yrotation Zrotation
            JOINT rAnkle
            {
                OFFSET   0.000000  -0.390000   0.000000
                CHANNELS 3 Xrotation Yrotation Zrotation
                JOINT rToeJoint
                {
                    OFFSET   0.000000  -0.050000   0.130000
                    CHANNELS 3 Xrotation Yrotation Zrotation
                    End Site
                    {
                        OFFSET  -0.010000   0.002000   0.060000
                    }
                }
            }
        }
    }
    JOINT lHip
    {
        OFFSET   0.100000  -0.051395   0.000000
        CHANNELS 3 Xrotation Yrotation Zrotation
        JOINT lKnee
        {
            OFFSET   0.000000  -0.410000   0.000000
            CHANNELS 3 Xrotation Yrotation Zrotation
            JOINT lAnkle
            {
                OFFSET   0.000000  -0.390000   0.000000
                CHANNELS 3 Xrotation Yrotation Zrotation
                JOINT lToeJoint
                {
                    OFFSET   0.000000  -0.050000   0.130000
                    CHANNELS 3 Xrotation Yrotation Zrotation
                    End Site
                    {
                        OFFSET   0.010000   0.002000   0.060000
                    }
                }
            }
        }
    }
}
MOTION
Frames: 12
Frame Time:   0.008333
 -2.376719   0.925631   3.975860   0.000000   0.000000   0.000000   0.000000   0.000000   0.000000   0.000000   0.000000   0.000000   0.000000   0.000000   0.000000   0.000000   0.000000   0.000000   0.000000   0.000000   0.000000   0.000000   0.000000   0.000000   0.000000   0.000000   0.000000   0.000000   0.000000   0.000000   0.000000   0.000000   0.000000   0.000000   0.000000   0.000000   0.000000   0.000000   0.000000   0.000000   0.000000   0.000000   0.000000   0.000000   0.000000   0.000000   0.000000   0.000000   0.000000   0.000000   0.000000   0.000000   0.000000   0.000000   0.000000   0.000000   0.000000   0.000000   0.000000   0.000000   0.000000   0.000000   0.000000
 -2.375598   0.925477   3.974775  -0.268372  -0.029434   1.077040   0.648005   0.026182  -1.074558   0.034969  -0.163239  -0.240060  -0.139352   0.123334  -0.055455   0.236005  -0.670063  -0.288034   1.440454   0.128993   2.384622   0.061088   3.615422  -0.067497   0.074635  -1.331987  -1.888397   0.244846   0.700813   0.612440   1.449143   0.654060  -1.725900   0.045759  -3.714522   0.069341   0.153161   0.699820   1.423152  -0.041879  -0.388200  -1.531720   0.793183   0.003119  -0.002926   0.099150  -0.306519  -0.050907   0.827272   0.003613  -0.005269  -0.968041   0.529798  -1.229371   3.423629   0.005152   0.014204  -0.359935   0.519028  -0.051394  -0.215718  -0.000373  -0.001885
 -2.374471   0.926303   3.973150  -0.678345  -0.147383   2.152869   1.424283   0.095079  -2.117034   0.246597  -0.260553  -0.519573  -0.212714   0.235421  -0.157638   0.471043  -1.226074  -0.033599   2.824169   0.442337   5.138922   0.147183   7.220368  -0.125329   0.218500  -1.657777  -3.277181   0.486325   1.380156   0.781885   2.827237   1.188604  -3.660473   0.114027  -7.520886   0.129840   0.381264   0.521840   2.504551   0.039397  -0.455670  -2.761671   1.309130   0.003135  -0.003217  -0.476410  -0.253206   0.277761   1.069677   0.002477  -0.004508  -2.061505   0.927785  -2.498635   7.014399   0.012277   0.017095  -0.784044   0.830878  -0.138956  -1.995459  -0.004693  -0.009629
 -2.373098   0.927942   3.971479  -1.180957  -0.137470   3.171097   2.235268   0.125233  -3.050002   0.544196  -0.355733  -0.767037  -0.252889   0.337278  -0.273338   0.697056  -1.662479   0.583263   4.089098   0.865449   7.985819   0.233250  10.617825  -0.165806   0.374095  -1.616892  -4.057830   0.713189   1.943488   0.615726   4.127791   1.579057  -5.711798   0.184806 -11.168036   0.173584   0.620013   0.022423   3.117982   0.150196  -0.516500  -3.949457   1.908031   0.003331  -0.002881  -0.645434  -0.201773   0.396767   0.709123   0.001866  -0.003591  -3.119718   1.450153  -3.639966  10.722511   0.017885   0.025698  -1.063778   1.277122  -0.182375  -2.072207  -0.003834  -0.008302
 -2.371475   0.929619   3.969929  -1.688062  -0.118564   4.242436   3.006913   0.177901  -3.974686   0.851989  -0.417703  -1.003492  -0.280262   0.433349  -0.387422   0.915494  -2.001109   1.396566   5.242196   1.372253  10.819998   0.306923  13.808498  -0.191592   0.527171  -1.419689  -4.353364   0.926899   2.424724   0.276909   5.355378   1.857500  -7.777655   0.244755 -14.589859   0.200919   0.855880  -0.611513   3.342169   0.269949  -0.659886  -5.192452   2.516708   0.003497  -0.002996  -0.851025  -0.240121   0.499475   0.427082   0.001362  -0.002469  -4.083852   1.993689  -4.744194  14.243310   0.020801   0.031491  -1.311733   1.718763  -0.212916  -2.001575  -0.002987  -0.006127
 -2.369632   0.931234   3.968511  -2.172142  -0.088819   5.307262   3.730929   0.246515  -4.824054   1.142237  -0.449016  -1.213905  -0.304836   0.523628  -0.498613   1.124985  -2.268819   2.322326   6.289753   1.934630  13.577495   0.364823  16.798004  -0.206374   0.672768  -1.151315  -4.341115   1.128433   2.851205  -0.184626   6.513437   2.052386  -9.815421   0.290444 -17.791710   0.215305   1.080843  -1.283093   3.306469   0.387058  -0.829300  -6.440807   3.094215   0.003635  -0.003120  -1.066817  -0.300613   0.586600   0.210940   0.000935  -0.001603  -4.975335   2.521637  -5.750335  17.535916   0.021144   0.034652  -1.542880   2.131680  -0.238530  -1.940174  -0.002363  -0.004483
 -2.367598   0.932758   3.967216  -2.630187  -0.012911   6.347729   4.408554   0.316068  -5.585999   1.411293  -0.463291  -1.386725  -0.328271   0.607958  -0.602604   1.326512  -2.490856   3.308269   7.240177   2.527661  16.229110   0.406749  19.593688  -0.213297   0.807654  -0.859677  -4.126132   1.319039   3.237983  -0.722445   7.605066   2.181661 -11.796371   0.321420 -20.784249   0.219805   1.291507  -1.953457   3.093334   0.504930  -0.994765  -7.683624   3.634063   0.003790  -0.002929  -1.289752  -0.353692   0.662231   0.050058   0.000586  -0.001091  -5.809185   3.026895  -6.646711  20.606884   0.019767   0.037074  -1.758995   2.517173  -0.259834  -1.889151  -0.001899  -0.003243
 -2.366121   0.933635   3.966770  -2.966839   0.080648   7.005883   4.668008   0.359297  -6.053756   1.749649  -0.339291  -1.417979  -0.373845   0.648363  -0.706718   1.759668  -2.763670   4.029282   8.814915   3.103418  18.468596   0.444720  22.643429  -0.241991   0.890327  -0.392894  -3.222091   1.698777   3.783321  -1.047936   9.044375   2.106697 -13.722142   0.359137 -24.271334   0.241177   1.439002  -2.399795   2.658339   0.491971  -1.232112  -8.490903   4.285094   0.003760  -0.003257  -1.683437  -0.535890   0.440724   0.044138   0.000450  -0.000856  -6.691088   3.685704  -6.875425  24.130378   0.014101   0.048910  -2.417594   3.000887  -0.451523  -1.844208  -0.001545  -0.002150
 -2.364893   0.934301   3.966984  -3.299149   0.248503   7.567696   4.804759   0.382913  -6.472923   2.003677  -0.232930  -1.419057  -0.423456   0.686766  -0.789909   2.181432  -3.068309   4.631475  10.281051   3.658968  20.495772   0.459930  25.491790  -0.253594   0.993733   0.154842  -2.293262   2.061605   4.326264  -1.304830  10.390700   2.006923 -15.486969   0.379039 -27.544972   0.245719   1.602584  -3.001737   2.212374   0.532179  -1.415329  -9.171234   4.944091   0.003630  -0.002752  -2.114520  -0.637184   0.277098  -0.021402   0.000202  -0.000618  -7.432401   4.274871  -6.846643  27.711846   0.007116   0.062222  -3.027244   3.460695  -0.623128  -1.795847  -0.001333  -0.001211
 -2.363749   0.934899   3.967656  -3.607151   0.477554   8.112180   4.842649   0.395622  -6.887551   2.176895  -0.151125  -1.433606  -0.480723   0.723060  -0.864842   2.586216  -3.396398   5.155373  11.641904   4.189373  22.350289   0.458461  28.140876  -0.253298   1.082703   0.645981  -1.438460   2.404095   4.860077  -1.517777  11.646988   1.900050 -17.112471   0.384885 -30.595128   0.238832   1.754828  -3.581558   1.807261   0.596768  -1.577286  -9.820710   5.587483   0.003499  -0.001854  -2.575825  -0.711932   0.140346  -0.068834   0.000061  -0.000494  -8.045968   4.798204  -6.689472  31.226731   0.000717   0.075316  -3.591346   3.893871  -0.777370  -1.735975  -0.001245  -0.000310
 -2.362592   0.935476   3.968621  -3.877477   0.725037   8.663884   4.802013   0.414354  -7.307102   2.282495  -0.080256  -1.474935  -0.544964   0.757528  -0.935908   2.974362  -3.736743   5.612696  12.905691   4.696348  24.050446   0.445241  30.604869  -0.245479   1.157979   1.067006  -0.658952   2.729447   5.386245  -1.701030  12.821086   1.791167 -18.617501   0.380211 -33.434628   0.225164   1.893676  -4.102217   1.436412   0.654514  -1.747230 -10.477701   6.202375   0.003398  -0.001093  -3.044673  -0.798276   0.015163  -0.097146  -0.000009  -0.000394  -8.532261   5.264791  -6.458561  34.555115  -0.004573   0.086015  -4.114201   4.301317  -0.915966  -1.673330  -0.001228   0.000450
 -2.361379   0.936041   3.969734  -4.108688   0.984293   9.225143   4.705748   0.438206  -7.728132   2.336196  -0.017148  -1.542514  -0.614333   0.790016  -1.003727   3.344964  -4.080279   6.008774  14.079102   5.181336  25.608275   0.424122  32.897825  -0.233278   1.222920   1.428472   0.048214   3.038904   5.900116  -1.862428  13.918623   1.679815 -20.014572   0.367929 -36.078629   0.207983   2.020692  -4.565842   1.092863   0.696108  -1.921150 -11.147664   6.781651   0.003323  -0.000476  -3.506675  -0.891806  -0.103253  -0.108841  -0.000031  -0.000315  -8.918114   5.679966  -6.175968  37.688803  -0.008639   0.094249  -4.600594   4.683887  -1.040537  -1.614171  -0.001232   0.001023
